<mxfile host="app.diagrams.net" modified="2024-06-11T02:03:20.295Z" agent="Mozilla/5.0 (Macintosh; Intel Mac OS X 10.15; rv:126.0) Gecko/20100101 Firefox/126.0" version="24.5.2" etag="ANbOoKpZ8Iz3pYbj20Ai" type="github">
  <diagram name="Page-1" id="EH6x0tKCX-zmMW8ma1cJ">
    <mxGraphModel>
      <root>
        <mxCell id="0" />
        <mxCell id="1" parent="0" />
      </root>
    </mxGraphModel>
  </diagram>
</mxfile>
